<svg width="800" height="600" viewBox="0 0 800 600" xmlns="http://www.w3.org/2000/svg">
  <rect width="800" height="600" fill="#f8fafc"/>
  <rect x="50" y="50" width="700" height="500" fill="#e2e8f0" stroke="#cbd5e1" stroke-width="2"/>

  <!-- Header -->
  <rect x="50" y="50" width="700" height="80" fill="#10b981"/>
  <text x="400" y="95" text-anchor="middle" fill="white" font-family="Arial, sans-serif" font-size="24" font-weight="bold">Analytics Dashboard</text>

  <!-- Sidebar -->
  <rect x="50" y="130" width="150" height="400" fill="#374151"/>
  <text x="125" y="160" text-anchor="middle" fill="white" font-family="Arial, sans-serif" font-size="14">Dashboard</text>
  <text x="125" y="190" text-anchor="middle" fill="white" font-family="Arial, sans-serif" font-size="14">Analytics</text>
  <text x="125" y="220" text-anchor="middle" fill="white" font-family="Arial, sans-serif" font-size="14">Reports</text>
  <text x="125" y="250" text-anchor="middle" fill="white" font-family="Arial, sans-serif" font-size="14">Settings</text>

  <!-- Main Content -->
  <rect x="220" y="130" width="530" height="400" fill="white"/>

  <!-- Stats Cards -->
  <rect x="240" y="150" width="150" height="80" fill="#3b82f6" rx="8"/>
  <text x="315" y="180" text-anchor="middle" fill="white" font-family="Arial, sans-serif" font-size="12">Total Users</text>
  <text x="315" y="200" text-anchor="middle" fill="white" font-family="Arial, sans-serif" font-size="24" font-weight="bold">12,847</text>
  <text x="315" y="215" text-anchor="middle" fill="#93c5fd" font-family="Arial, sans-serif" font-size="12">+12.5%</text>

  <rect x="410" y="150" width="150" height="80" fill="#10b981" rx="8"/>
  <text x="485" y="180" text-anchor="middle" fill="white" font-family="Arial, sans-serif" font-size="12">Revenue</text>
  <text x="485" y="200" text-anchor="middle" fill="white" font-family="Arial, sans-serif" font-size="24" font-weight="bold">$45,231</text>
  <text x="485" y="215" text-anchor="middle" fill="#6ee7b7" font-family="Arial, sans-serif" font-size="12">+8.2%</text>

  <rect x="580" y="150" width="150" height="80" fill="#f59e0b" rx="8"/>
  <text x="655" y="180" text-anchor="middle" fill="white" font-family="Arial, sans-serif" font-size="12">Orders</text>
  <text x="655" y="200" text-anchor="middle" fill="white" font-family="Arial, sans-serif" font-size="24" font-weight="bold">1,234</text>
  <text x="655" y="215" text-anchor="middle" fill="#fcd34d" font-family="Arial, sans-serif" font-size="12">+5.7%</text>

  <!-- Chart Area -->
  <rect x="240" y="250" width="490" height="200" fill="#f8fafc" stroke="#e2e8f0" stroke-width="1" rx="8"/>
  <text x="485" y="280" text-anchor="middle" fill="#475569" font-family="Arial, sans-serif" font-size="16" font-weight="bold">Monthly Revenue Chart</text>

  <!-- Chart Bars -->
  <rect x="260" y="350" width="30" height="60" fill="#3b82f6"/>
  <rect x="300" y="330" width="30" height="80" fill="#3b82f6"/>
  <rect x="340" y="310" width="30" height="100" fill="#3b82f6"/>
  <rect x="380" y="320" width="30" height="90" fill="#3b82f6"/>
  <rect x="420" y="300" width="30" height="110" fill="#3b82f6"/>
  <rect x="460" y="290" width="30" height="120" fill="#3b82f6"/>
  <rect x="500" y="315" width="30" height="95" fill="#3b82f6"/>
  <rect x="540" y="325" width="30" height="85" fill="#3b82f6"/>
  <rect x="580" y="305" width="30" height="105" fill="#3b82f6"/>
  <rect x="620" y="295" width="30" height="115" fill="#3b82f6"/>
  <rect x="660" y="320" width="30" height="90" fill="#3b82f6"/>
  <rect x="700" y="335" width="30" height="75" fill="#3b82f6"/>

  <!-- Chart Labels -->
  <text x="275" y="430" text-anchor="middle" fill="#64748b" font-family="Arial, sans-serif" font-size="10">Jan</text>
  <text x="315" y="430" text-anchor="middle" fill="#64748b" font-family="Arial, sans-serif" font-size="10">Feb</text>
  <text x="355" y="430" text-anchor="middle" fill="#64748b" font-family="Arial, sans-serif" font-size="10">Mar</text>
  <text x="395" y="430" text-anchor="middle" fill="#64748b" font-family="Arial, sans-serif" font-size="10">Apr</text>
  <text x="435" y="430" text-anchor="middle" fill="#64748b" font-family="Arial, sans-serif" font-size="10">May</text>
  <text x="475" y="430" text-anchor="middle" fill="#64748b" font-family="Arial, sans-serif" font-size="10">Jun</text>
  <text x="515" y="430" text-anchor="middle" fill="#64748b" font-family="Arial, sans-serif" font-size="10">Jul</text>
  <text x="555" y="430" text-anchor="middle" fill="#64748b" font-family="Arial, sans-serif" font-size="10">Aug</text>
  <text x="595" y="430" text-anchor="middle" fill="#64748b" font-family="Arial, sans-serif" font-size="10">Sep</text>
  <text x="635" y="430" text-anchor="middle" fill="#64748b" font-family="Arial, sans-serif" font-size="10">Oct</text>
  <text x="675" y="430" text-anchor="middle" fill="#64748b" font-family="Arial, sans-serif" font-size="10">Nov</text>
  <text x="715" y="430" text-anchor="middle" fill="#64748b" font-family="Arial, sans-serif" font-size="10">Dec</text>

  <!-- Aqua9 Logo -->
  <text x="750" y="580" text-anchor="end" fill="#64748b" font-family="Arial, sans-serif" font-size="12">Aqua9</text>
</svg>
