<svg width="800" height="600" viewBox="0 0 800 600" xmlns="http://www.w3.org/2000/svg">
  <rect width="800" height="600" fill="#f8fafc"/>
  <rect x="50" y="50" width="700" height="500" fill="#e2e8f0" stroke="#cbd5e1" stroke-width="2"/>

  <!-- Header -->
  <rect x="50" y="50" width="700" height="80" fill="#3b82f6"/>
  <text x="400" y="95" text-anchor="middle" fill="white" font-family="Arial, sans-serif" font-size="24" font-weight="bold">E-Commerce Platform</text>

  <!-- Navigation -->
  <rect x="50" y="130" width="700" height="40" fill="#64748b"/>
  <text x="100" y="155" fill="white" font-family="Arial, sans-serif" font-size="14">Home</text>
  <text x="180" y="155" fill="white" font-family="Arial, sans-serif" font-size="14">Products</text>
  <text x="280" y="155" fill="white" font-family="Arial, sans-serif" font-size="14">Cart</text>
  <text x="340" y="155" fill="white" font-family="Arial, sans-serif" font-size="14">Account</text>

  <!-- Product Grid -->
  <rect x="70" y="190" width="200" height="150" fill="white" stroke="#e2e8f0" stroke-width="1"/>
  <rect x="80" y="200" width="180" height="100" fill="#f1f5f9"/>
  <text x="170" y="320" text-anchor="middle" fill="#475569" font-family="Arial, sans-serif" font-size="14">Product 1</text>
  <text x="170" y="340" text-anchor="middle" fill="#3b82f6" font-family="Arial, sans-serif" font-size="16" font-weight="bold">$99.99</text>

  <rect x="300" y="190" width="200" height="150" fill="white" stroke="#e2e8f0" stroke-width="1"/>
  <rect x="310" y="200" width="180" height="100" fill="#f1f5f9"/>
  <text x="400" y="320" text-anchor="middle" fill="#475569" font-family="Arial, sans-serif" font-size="14">Product 2</text>
  <text x="400" y="340" text-anchor="middle" fill="#3b82f6" font-family="Arial, sans-serif" font-size="16" font-weight="bold">$149.99</text>

  <rect x="530" y="190" width="200" height="150" fill="white" stroke="#e2e8f0" stroke-width="1"/>
  <rect x="540" y="200" width="180" height="100" fill="#f1f5f9"/>
  <text x="630" y="320" text-anchor="middle" fill="#475569" font-family="Arial, sans-serif" font-size="14">Product 3</text>
  <text x="630" y="340" text-anchor="middle" fill="#3b82f6" font-family="Arial, sans-serif" font-size="16" font-weight="bold">$79.99</text>

  <!-- Footer -->
  <rect x="50" y="480" width="700" height="70" fill="#1e293b"/>
  <text x="400" y="520" text-anchor="middle" fill="white" font-family="Arial, sans-serif" font-size="16">© 2024 E-Commerce Platform. All rights reserved.</text>

  <!-- Aqua9 Logo -->
  <text x="750" y="580" text-anchor="end" fill="#64748b" font-family="Arial, sans-serif" font-size="12">Aqua9</text>
</svg>
