<?xml version="1.0" encoding="UTF-8" standalone="no"?>
<svg
   fill="none"
   viewBox="0 0 283 64"
   version="1.1"
   id="svg1"
   sodipodi:docname="logo-dark.svg"
   inkscape:export-filename="logo.svg"
   inkscape:export-xdpi="96"
   inkscape:export-ydpi="96"
   inkscape:version="1.4.2 (ebf0e940d0, 2025-05-08)"
   xmlns:inkscape="http://www.inkscape.org/namespaces/inkscape"
   xmlns:sodipodi="http://sodipodi.sourceforge.net/DTD/sodipodi-0.dtd"
   xmlns="http://www.w3.org/2000/svg"
   xmlns:svg="http://www.w3.org/2000/svg">
  <defs
     id="defs1">
    <clipPath
       id="v-4"
       clipPathUnits="userSpaceOnUse">
      <path
         d="m -45.474,8.75 h 348 v -112 h -348 z"
         id="path46-5" />
    </clipPath>
    <clipPath
       id="w-9"
       clipPathUnits="userSpaceOnUse">
      <path
         d="m -73.742,11.383 h 348 v -112 h -348 z"
         id="path47-9" />
    </clipPath>
    <clipPath
       id="x-7"
       clipPathUnits="userSpaceOnUse">
      <path
         d="m -94.498,24.271 h 348 v -112 h -348 z"
         id="path48-4" />
    </clipPath>
    <clipPath
       clipPathUnits="userSpaceOnUse"
       id="clipPath2">
      <path
         d="M 0,112 H 348 V 0 H 0 Z"
         transform="translate(-328.46391,-34.733403)"
         id="path2" />
    </clipPath>
    <clipPath
       clipPathUnits="userSpaceOnUse"
       id="clipPath4">
      <path
         d="M 0,112 H 348 V 0 H 0 Z"
         transform="translate(-264.74121,-81.266602)"
         id="path4-2" />
    </clipPath>
    <clipPath
       clipPathUnits="userSpaceOnUse"
       id="clipPath6">
      <path
         d="M 0,112 H 348 V 0 H 0 Z"
         transform="translate(-278.89261,-62.417001)"
         id="path6-7" />
    </clipPath>
    <clipPath
       clipPathUnits="userSpaceOnUse"
       id="clipPath8">
      <path
         d="M 0,112 H 348 V 0 H 0 Z"
         transform="translate(-295.13281,-25.297901)"
         id="path8" />
    </clipPath>
    <clipPath
       clipPathUnits="userSpaceOnUse"
       id="clipPath10">
      <path
         d="M 0,112 H 348 V 0 H 0 Z"
         transform="translate(-60.606401,-63.479502)"
         id="path10" />
    </clipPath>
    <clipPath
       clipPathUnits="userSpaceOnUse"
       id="clipPath12">
      <path
         d="M 0,112 H 348 V 0 H 0 Z"
         transform="translate(-121.4214,-55.079102)"
         id="path12" />
    </clipPath>
    <clipPath
       clipPathUnits="userSpaceOnUse"
       id="clipPath14">
      <path
         d="M 0,112 H 348 V 0 H 0 Z"
         transform="translate(-134.5815,-55.863302)"
         id="path14" />
    </clipPath>
    <clipPath
       clipPathUnits="userSpaceOnUse"
       id="clipPath16">
      <path
         d="M 0,112 H 348 V 0 H 0 Z"
         transform="translate(-165.04491,-56.143601)"
         id="path16" />
    </clipPath>
    <clipPath
       clipPathUnits="userSpaceOnUse"
       id="clipPath18">
      <path
         d="M 0,112 H 348 V 0 H 0 Z"
         transform="translate(-210.85251,-55.079102)"
         id="path18" />
    </clipPath>
    <clipPath
       clipPathUnits="userSpaceOnUse"
       id="clipPath20">
      <path
         d="M 0,112 H 348 V 0 H 0 Z"
         transform="translate(-225.24411,-55.863302)"
         id="path20" />
    </clipPath>
    <clipPath
       clipPathUnits="userSpaceOnUse"
       id="clipPath22">
      <path
         d="M 0,112 H 348 V 0 H 0 Z"
         transform="translate(-289.69921,-32.063501)"
         id="path22" />
    </clipPath>
    <clipPath
       clipPathUnits="userSpaceOnUse"
       id="clipPath24">
      <path
         d="M 0,112 H 348 V 0 H 0 Z"
         transform="translate(-45.473601,-103.2509)"
         id="path24" />
    </clipPath>
    <clipPath
       clipPathUnits="userSpaceOnUse"
       id="clipPath26">
      <path
         d="M 0,112 H 348 V 0 H 0 Z"
         transform="translate(-73.741702,-100.6166)"
         id="path26" />
    </clipPath>
    <clipPath
       clipPathUnits="userSpaceOnUse"
       id="clipPath28">
      <path
         d="M 0,112 H 348 V 0 H 0 Z"
         transform="translate(-94.497505,-87.728702)"
         id="path28" />
    </clipPath>
    <clipPath
       clipPathUnits="userSpaceOnUse"
       id="clipPath28-2">
      <path
         d="M 0,112 H 348 V 0 H 0 Z"
         transform="translate(-94.497505,-87.728702)"
         id="path28-6" />
    </clipPath>
    <clipPath
       clipPathUnits="userSpaceOnUse"
       id="clipPath26-1">
      <path
         d="M 0,112 H 348 V 0 H 0 Z"
         transform="translate(-73.741702,-100.6166)"
         id="path26-8" />
    </clipPath>
    <clipPath
       clipPathUnits="userSpaceOnUse"
       id="clipPath24-7">
      <path
         d="M 0,112 H 348 V 0 H 0 Z"
         transform="translate(-45.473601,-103.2509)"
         id="path24-9" />
    </clipPath>
    <clipPath
       clipPathUnits="userSpaceOnUse"
       id="clipPath2-2">
      <path
         d="M 0,112 H 348 V 0 H 0 Z"
         transform="translate(-328.46391,-34.733403)"
         id="path2-2" />
    </clipPath>
    <clipPath
       clipPathUnits="userSpaceOnUse"
       id="clipPath10-1">
      <path
         d="M 0,112 H 348 V 0 H 0 Z"
         transform="translate(-60.606401,-63.479502)"
         id="path10-2" />
    </clipPath>
  </defs>
  <sodipodi:namedview
     id="namedview1"
     pagecolor="#505050"
     bordercolor="#eeeeee"
     borderopacity="1"
     inkscape:showpageshadow="0"
     inkscape:pageopacity="0"
     inkscape:pagecheckerboard="0"
     inkscape:deskcolor="#505050"
     inkscape:zoom="2.8983882"
     inkscape:cx="106.78349"
     inkscape:cy="68.65885"
     inkscape:window-width="1920"
     inkscape:window-height="1002"
     inkscape:window-x="0"
     inkscape:window-y="0"
     inkscape:window-maximized="1"
     inkscape:current-layer="svg1" />
  <g
     id="g2"
     transform="matrix(0.87720452,0,0,0.87720452,36.081376,2.392289)">
    <path
       id="path1"
       d="m 0,0 c 0.459,-0.48 0.97,-0.7 1.53,-0.66 0.6,0 1.119,0.21 1.56,0.63 C 3.529,0.39 3.75,0.899 3.75,1.5 3.83,2.1 3.63,2.589 3.15,2.97 2.67,3.35 2.149,3.54 1.59,3.54 1.029,3.579 0.51,3.409 0.03,3.03 -0.45,2.649 -0.65,2.16 -0.57,1.56 -0.65,0.999 -0.46,0.479 0,0 m -0.78,20.699 c 0.019,-2.639 0.03,-5.339 0.03,-8.099 -0.081,-0.48 0.02,-0.93 0.3,-1.35 0.279,-0.42 0.699,-0.591 1.26,-0.51 h 1.98 c 0.439,-0.041 0.739,0.169 0.899,0.63 0.161,0.459 0.22,0.87 0.181,1.23 V 28.74 C 3.909,29.1 3.859,29.509 3.72,29.97 3.579,30.429 3.27,30.639 2.79,30.6 H 0.81 C 0.249,30.68 -0.16,30.51 -0.42,30.09 -0.681,29.67 -0.79,29.239 -0.75,28.8 -0.79,26.04 -0.801,23.34 -0.78,20.699 M -2.19,39.78 c 0.04,-0.081 0.08,-0.16 0.12,-0.24 2.4,0.039 4.82,0.039 7.259,0 l 0.301,0.42 c -0.081,0.08 -0.14,0.15 -0.18,0.21 -0.04,0.06 -0.1,0.129 -0.18,0.21 -1.16,0.039 -2.34,0.069 -3.54,0.09 -1.2,0.019 -2.38,-0.011 -3.54,-0.09 l -0.361,-0.36 c 0.04,-0.081 0.081,-0.161 0.121,-0.24 M 5.85,11.64 C 5.89,10.959 5.709,10.329 5.31,9.75 4.909,9.17 4.35,8.84 3.63,8.76 h -4.02 c -0.76,0.08 -1.35,0.429 -1.77,1.05 -0.42,0.62 -0.611,1.29 -0.57,2.009 -0.041,5.92 -0.041,11.841 0,17.761 -0.041,0.72 0.15,1.389 0.57,2.01 0.42,0.619 1.01,0.969 1.77,1.05 h 4.02 c 0.72,-0.12 1.269,-0.471 1.65,-1.05 0.379,-0.581 0.57,-1.211 0.57,-1.89 0.04,-6.04 0.04,-12.06 0,-18.06 m 6.629,-5.58 c 0.061,0.08 0.13,0.159 0.21,0.24 0.201,4.84 0.29,9.599 0.271,14.279 C 12.939,25.26 12.85,30.02 12.689,34.86 12.609,34.939 12.54,35 12.479,35.04 12.42,35.079 12.35,35.139 12.27,35.22 8.63,35.54 5.09,35.709 1.65,35.73 -1.791,35.75 -5.331,35.619 -8.97,35.34 -9.051,35.259 -9.15,35.19 -9.271,35.13 -9.39,35.07 -9.49,35 -9.57,34.92 -9.73,30.08 -9.82,25.329 -9.84,20.67 c -0.02,-4.661 0.069,-9.411 0.27,-14.25 0,-0.12 0.049,-0.231 0.15,-0.33 0.1,-0.101 0.19,-0.191 0.27,-0.271 3.639,-0.28 7.21,-0.429 10.71,-0.449 3.5,-0.02 7.07,0.129 10.71,0.449 0.08,0.08 0.15,0.16 0.209,0.241 M -9.69,-0.45 c -0.76,0.699 -1.3,1.55 -1.621,2.55 -0.32,6.159 -0.469,12.21 -0.449,18.15 0.02,5.94 0.19,11.989 0.51,18.15 0.199,1.16 0.76,2.16 1.68,3 0.92,0.84 1.96,1.359 3.12,1.56 2.679,0.24 5.359,0.36 8.04,0.36 1.359,0 2.709,-0.041 4.05,-0.12 1.339,-0.081 2.69,-0.201 4.049,-0.36 1.161,-0.201 2.191,-0.741 3.091,-1.62 0.9,-0.881 1.449,-1.901 1.65,-3.06 0.159,-3 0.279,-5.97 0.36,-8.91 0.079,-2.94 0.12,-5.91 0.12,-8.91 0,-3 -0.041,-5.961 -0.12,-8.88 C 14.709,8.539 14.589,5.58 14.43,2.58 14.229,1.38 13.67,0.35 12.75,-0.51 11.829,-1.371 10.79,-1.9 9.63,-2.101 6.87,-2.34 4.089,-2.451 1.29,-2.431 c -2.801,0.021 -5.58,0.19 -8.34,0.511 -1.001,0.279 -1.881,0.77 -2.64,1.47"
       style="fill:#ffffff;fill-opacity:1;fill-rule:nonzero;stroke:none"
       transform="matrix(1.51998,0,0,-1.51998,381.76377,119.0718)"
       clip-path="url(#clipPath2)" />
    <g
       id="g4"
       transform="matrix(1.0563662,0,0,1.0563662,5.1455835,-1.902491)">
      <g
         id="g3"
         transform="matrix(0.70837696,0,0,0.70837696,-1.9162418,-91.857336)">
        <path
           id="path3-9"
           d="m 0,0 c 1.508,-0.116 5.684,-2.204 6.322,-3.596 -6.67,-6.09 -13.803,-32.653 -13.803,-41.237 0,-0.696 0.057,-1.044 0.173,-1.218 -3.364,0.174 -2.668,2.204 -4.118,2.784 -1.044,0.406 -1.624,3.828 -1.624,5.162 0,8.41 8.642,33.523 13.05,38.105"
           style="fill:#f8af3a;fill-opacity:1;fill-rule:nonzero;stroke:none"
           transform="matrix(1.51998,0,0,-1.51998,258.94763,136.44525)"
           clip-path="url(#clipPath4)" />
        <path
           id="path5-3"
           d="m 0,0 c -1.74,-4.234 -7.83,-12.47 -8.294,-16.008 2.436,2.611 6.38,7.482 7.714,8.874 2.958,3.132 8.409,8.874 12.18,8.874 1.971,0 3.363,-1.682 4.117,-3.132 0,-0.174 -0.638,-0.232 -1.682,-1.45 -2.088,-2.726 -6.031,-10.382 -6.031,-15.137 0,-1.915 0.521,-2.262 1.449,-2.262 0.813,0 1.914,0.58 2.437,0.58 0.29,-0.175 0.521,-0.813 0.521,-1.16 -1.16,-1.044 -3.653,-2.378 -4.987,-2.378 -4.466,0 -5.511,2.725 -5.511,6.147 0,1.914 0.523,4.292 3.191,10.44 -0.174,0 -2.436,-1.102 -4.699,-3.306 -3.595,-3.479 -6.321,-6.67 -9.338,-10.846 -1.681,-2.378 -2.957,-4.175 -3.885,-4.698 -1.624,0.929 -2.32,2.784 -2.668,4.525 0,2.899 1.74,9.395 4.35,15.369 2.958,6.786 5.684,10.846 6.322,11.136 C -2.784,4.93 -0.812,2.552 0,0"
           style="fill:#f8af3a;fill-opacity:1;fill-rule:nonzero;stroke:none"
           transform="matrix(1.51998,0,0,-1.51998,280.45747,165.09626)"
           clip-path="url(#clipPath6)" />
        <path
           id="path7-6"
           d="m 0,0 c -0.175,1.102 -0.754,1.855 -1.973,2.552 1.277,7.946 2.727,14.847 8.237,34.277 -2.552,0 -3.771,-0.058 -5.162,-0.29 -0.29,0.29 -0.522,0.928 -0.522,1.392 0.754,0.29 3.48,0.87 6.321,1.276 3.655,11.716 9.861,19.082 16.182,19.082 0.928,0 1.856,-0.174 2.32,-0.174 0.696,0.522 2.088,1.044 2.9,1.044 0.406,0 1.044,-0.232 1.798,-0.754 -0.638,-1.102 -1.392,-3.133 -1.856,-4.93 -0.986,-2.9 -2.03,-4.756 -3.074,-5.568 -0.464,0 -0.638,0.464 -0.696,1.682 -0.058,0.87 -0.174,1.624 -0.348,2.378 -0.29,0.696 -0.406,1.102 -0.406,1.971 0,0.465 0.058,0.987 0.29,2.495 -2.552,0 -6.554,-6.844 -9.86,-16.762 l 4.872,0.174 c 0.348,-0.348 0.696,-1.972 0.754,-3.422 l -6.38,0.348 C 7.598,19.371 2.958,4.35 1.739,-2.204 0.754,-1.798 0.174,-1.044 0,0"
           style="fill:#f8af3a;fill-opacity:1;fill-rule:nonzero;stroke:none"
           transform="matrix(1.51998,0,0,-1.51998,305.14225,221.51655)"
           clip-path="url(#clipPath8)" />
        <path
           id="path9"
           d="m 0,0 c 4.2,11.592 13.944,22.064 23.24,21.896 h 0.504 c 0.672,-0.056 1.344,-0.112 1.96,-0.28 2.24,-0.84 2.912,-2.968 3.08,-4.928 0.616,2.184 0.952,3.976 1.176,5.488 1.288,-0.112 2.408,-0.28 3.36,-0.56 1.736,-0.448 3.416,-1.232 3.584,-2.408 0.224,-2.464 -8.736,-22.344 -10.192,-22.12 -1.4,0.224 -2.184,0.728 -2.576,1.344 -0.28,0.336 -0.448,0.672 -0.504,1.064 0.504,1.4 0.952,2.912 1.456,4.424 0.84,2.632 1.904,6.16 2.856,9.52 -3.696,2.632 -12.992,-0.84 -18.368,-19.824 -4.312,-15.4 2.688,-21.952 7.448,-21.672 4.424,0.281 5.936,3.752 6.216,7.224 0.168,2.017 0,4.312 -0.504,6.832 -1.624,0.393 -3.192,0.84 -4.76,1.345 l -0.56,0.447 c -1.512,1.624 -0.448,3.696 0.616,5.04 4.48,-1.176 9.464,-1.232 13.328,-1.064 2.296,0.112 4.48,0.336 6.664,0.672 -4.928,-4.816 -6.944,-6.383 -9.24,-6.832 0,-0.056 0.056,-0.056 0.056,-0.112 0.448,-1.512 -0.168,-24.023 -18.816,-20.664 C -6.048,-32.256 -3.584,-9.912 0,0"
           style="fill:#ffffff;fill-opacity:1;fill-rule:nonzero;stroke:none"
           transform="matrix(1.51998,0,0,-1.51998,-51.333177,163.48128)"
           clip-path="url(#clipPath10)" />
        <path
           id="path11"
           d="m 0,0 c 0.392,-0.279 0.728,-0.672 0.728,-1.344 0,-1.288 -4.032,-19.376 -11.816,-18.256 -7.784,1.121 -5.04,22.121 -3.024,31.473 0,0.056 0,0.168 0.056,0.279 0.056,0.168 0.056,0.392 0.224,0.673 l -3.136,1.119 c -1.12,-4.816 -4.816,-18.927 -5.712,-21.559 -0.84,-0.168 -1.512,0 -2.016,0.616 0.896,2.912 4.424,16.016 5.992,21.616 -1.624,0.615 -3.08,1.343 -3.92,1.96 v 0.055 c -1.736,1.288 -2.52,3.137 -1.792,4.648 0.896,1.68 3.416,2.129 5.824,0.897 2.408,-1.177 3.584,-3.472 2.744,-5.208 -0.112,-0.224 -0.28,-0.448 -0.448,-0.616 0.952,-0.672 2.408,-1.4 4.592,-2.017 h 0.112 c 0.056,-0.055 0.112,-0.055 0.224,-0.055 2.128,-0.616 5.712,-1.569 6.888,-3.08 1.176,-1.624 -0.224,-1.177 -0.84,-1.96 -0.56,-0.784 -6.384,-22.736 -2.464,-22.961 1.96,-0.168 3.64,3.416 4.984,6.945 0.728,2.072 1.456,4.423 2.072,7.111 C -0.448,0.28 -0.224,0.168 0,0"
           style="fill:#ffffff;fill-opacity:1;fill-rule:nonzero;stroke:none"
           transform="matrix(1.51998,0,0,-1.51998,41.104403,176.24972)"
           clip-path="url(#clipPath12)" />
        <path
           id="path13"
           d="m 0,0 0.336,3.192 c -0.168,1.345 -0.672,3.137 -2.464,3.36 -5.6,0.673 -8.848,-18.087 -5.208,-19.207 C -4.088,-13.831 -0.896,-2.632 0,0 m 15.792,-0.784 c 0.392,-0.279 0.728,-0.672 0.728,-1.344 0,-1.288 -4.032,-19.376 -11.816,-18.256 -3.92,0.616 -5.152,6.105 -5.152,12.712 -1.624,-5.208 -4.48,-11.592 -7.728,-12.04 -5.824,-0.895 -8.904,4.257 -8.176,12.937 0.728,8.679 4.536,20.775 11.592,19.879 3.192,-0.448 4.928,-2.576 5.88,-4.983 0.168,1.064 0.392,2.071 0.56,2.967 0.112,0.504 0.28,1.008 0.504,1.4 0.392,0.672 0.952,1.288 2.016,1.064 2.016,-0.448 5.936,-1.624 7.168,-3.135 1.12,-1.568 -0.281,-1.232 -0.84,-1.96 -0.392,-0.785 -6.608,-22.736 -2.52,-22.961 1.96,-0.168 3.696,3.416 5.039,6.944 0.729,2.073 1.456,4.424 2.073,7.112 0.28,-0.056 0.504,-0.168 0.672,-0.336"
           style="fill:#ffffff;fill-opacity:1;fill-rule:nonzero;stroke:none"
           transform="matrix(1.51998,0,0,-1.51998,61.107491,175.05775)"
           clip-path="url(#clipPath14)" />
        <path
           id="path15"
           d="M 0,0 0.336,2.52 C 0.168,3.976 -0.168,5.992 -2.185,6.272 -7.784,6.944 -11.032,-11.815 -7.393,-12.936 -3.977,-14.056 -0.672,-1.96 0,0 m 15.792,-1.064 c 0.392,-0.28 0.728,-0.672 0.728,-1.344 0,-1.288 -4.144,-20.048 -11.816,-18.256 -3.92,0.896 -5.208,6.104 -5.208,12.656 -1.792,-5.152 -4.424,-11.536 -7.728,-11.984 -5.824,-0.896 -8.904,4.257 -8.176,12.936 0.728,8.68 4.536,20.776 11.592,19.88 3.36,-0.448 5.04,-2.744 5.936,-5.152 1.344,7.504 3.024,14.616 3.752,18.032 0.111,0.504 0.279,1.008 0.504,1.4 0.392,0.672 0.952,1.288 2.016,1.064 2.016,-0.616 5.936,-1.624 7.168,-3.192 1.175,-1.456 -0.281,-1.232 -0.84,-1.96 -0.728,-0.728 -9.576,-37.52 -5.712,-37.8 1.96,-0.168 3.639,3.416 4.984,6.944 0.728,2.072 1.456,4.424 2.071,7.111 0.281,-0.055 0.504,-0.167 0.729,-0.335"
           style="fill:#ffffff;fill-opacity:1;fill-rule:nonzero;stroke:none"
           transform="matrix(1.51998,0,0,-1.51998,107.41125,174.6317)"
           clip-path="url(#clipPath16)" />
        <path
           id="path17"
           d="m 0,0 c 0.392,-0.279 0.728,-0.672 0.728,-1.344 0,-1.288 -4.033,-19.376 -11.816,-18.256 -3.528,0.449 -4.984,5.265 -5.152,11.033 -1.792,-5.321 -5.321,-11.76 -9.912,-11.033 -7.728,1.121 -5.04,22.121 -3.024,31.473 0.112,0.503 0.28,1.007 0.504,1.399 0.392,0.672 0.952,1.289 2.016,1.064 2.015,-0.447 5.936,-1.624 7.168,-3.135 1.008,-1.624 -0.224,-1.177 -0.84,-1.96 -0.616,-0.784 -6.496,-22.736 -2.521,-22.961 3.361,-0.223 6.217,10.473 6.889,13.328 0.447,4.649 1.176,9.128 1.848,12.265 0.112,0.503 0.28,1.007 0.504,1.399 0.392,0.672 0.952,1.289 2.016,1.064 2.016,-0.447 5.936,-1.624 7.168,-3.135 1.008,-1.624 -0.224,-1.177 -0.841,-1.96 -0.615,-0.784 -6.495,-22.736 -2.519,-22.961 1.96,-0.168 3.639,3.416 4.984,6.945 0.728,2.072 1.455,4.423 2.071,7.111 C -0.448,0.28 -0.225,0.168 0,0"
           style="fill:#ffffff;fill-opacity:1;fill-rule:nonzero;stroke:none"
           transform="matrix(1.51998,0,0,-1.51998,177.03789,176.24972)"
           clip-path="url(#clipPath18)" />
        <path
           id="path19"
           d="M 0,0 0.336,3.192 C 0.168,4.537 -0.336,6.329 -2.128,6.552 -7.729,7.225 -10.977,-11.535 -7.336,-12.655 -4.088,-13.831 -0.896,-2.632 0,0 m 15.792,-0.784 c 0.392,-0.279 0.728,-0.672 0.728,-1.344 0,-1.288 -4.033,-19.376 -11.816,-18.256 -3.92,0.616 -5.152,6.105 -5.152,12.712 -1.624,-5.208 -4.48,-11.592 -7.728,-12.04 -5.824,-0.895 -8.904,4.257 -8.177,12.937 0.729,8.679 4.537,20.775 11.593,19.879 3.192,-0.448 4.928,-2.576 5.88,-4.983 0.168,1.064 0.392,2.071 0.56,2.967 0.112,0.504 0.28,1.008 0.504,1.4 0.392,0.672 0.952,1.288 2.016,1.064 2.016,-0.448 5.936,-1.624 7.168,-3.135 1.119,-1.568 -0.28,-1.232 -0.841,-1.96 -0.391,-0.785 -6.607,-22.736 -2.519,-22.961 1.96,-0.168 3.696,3.416 5.04,6.944 0.727,2.073 1.456,4.424 2.072,7.112 0.279,-0.056 0.504,-0.168 0.672,-0.336"
           style="fill:#ffffff;fill-opacity:1;fill-rule:nonzero;stroke:none"
           transform="matrix(1.51998,0,0,-1.51998,198.91283,175.05775)"
           clip-path="url(#clipPath20)" />
        <path
           id="path21"
           d="m 0,0 c 0.951,-1.68 0.896,-3.92 -0.112,-6.72 -4.145,5.376 -18.424,1.68 -30.409,0.952 -3.08,-0.28 -5.935,0.056 -8.567,1.064 -4.48,1.792 -9.128,5.881 -10.36,15.849 -1.569,11.367 3.752,31.751 5.095,38.583 0.113,0.504 0.281,1.008 0.504,1.4 0.393,0.672 0.953,1.288 2.017,1.064 2.016,-0.448 5.936,-1.624 7.168,-3.136 1.12,-1.568 -0.28,-1.232 -0.84,-1.96 C -35.952,46.48 -40.88,26.712 -42,15.904 c -0.225,-1.288 -1.064,-11.759 2.464,-16.351 2.183,-2.296 5.992,-2.576 10.248,-1.624 l 2.296,0.615 c 2.855,0.841 5.431,1.681 7.223,2.297 C -6.496,4.704 -1.624,2.856 0,0"
           style="fill:#ffffff;fill-opacity:1;fill-rule:nonzero;stroke:none"
           transform="matrix(1.51998,0,0,-1.51998,296.88329,211.23298)"
           clip-path="url(#clipPath22)" />
      </g>
      <path
         d="m 239.56554,53.905725 q -4.01097,-0.422207 -6.40347,-3.51839 -2.39251,-3.096183 -2.39251,-7.881193 0,-2.814712 0.84442,-5.840528 0.84441,-3.025815 2.3925,-5.840527 1.54809,-2.885079 3.65913,-5.41832 2.11103,-2.533241 4.57391,-4.362804 3.87022,-2.885079 7.24788,-2.885079 2.25177,1.196252 4.43317,4.996113 0.35184,0 0.63331,0 0.28147,-0.07037 0.63331,-0.07037 3.72949,0 3.72949,6.614573 0,4.433172 -1.47772,8.444136 -1.40736,3.940597 -4.01096,7.177516 -2.53325,3.236918 -6.122,5.488688 -3.51839,2.181402 -7.74046,3.096183 z m 3.58876,-22.165856 q -1.19626,1.618459 -2.25177,3.51839 -1.05552,1.89993 -1.82957,3.870228 -0.77404,1.899931 -1.19625,3.729494 -0.4222,1.759195 -0.4222,3.166551 0,1.688827 0.56294,3.236918 0.56294,1.548092 1.26662,1.759195 3.16655,-0.703678 5.77016,-2.603608 2.67397,-1.970299 4.5739,-4.855378 1.9703,-2.88508 3.02582,-6.544206 1.12588,-3.659125 1.12588,-7.810825 0,-1.829563 -0.2111,-2.88508 -0.2111,-1.055517 -0.70368,-1.829563 -3.09618,0.914782 -5.55905,2.955448 -2.39251,2.040666 -4.1517,4.292436 z"
         id="text3"
         style="font-size:70.3678px;font-family:'Kaushan Script';-inkscape-font-specification:'Kaushan Script, Normal';fill:#f8af3a;stroke-width:0.170056"
         aria-label="o" />
    </g>
  </g>
  <g
     id="g5">
    <g
       id="g1"
       transform="matrix(0.73112986,0,0,0.73112986,214.54604,79.996936)">
      <path
         id="path23-2"
         d="m 0,0 c -24.344,-11.351 -34.877,-40.29 -23.525,-64.634 11.351,-24.345 40.289,-34.878 64.635,-23.525 8.685,4.048 15.613,10.339 20.419,17.866 -5.122,-11.033 -14.012,-20.391 -25.9,-25.934 -26.772,-12.484 -58.594,-0.902 -71.078,25.874 -12.485,26.77 -0.902,58.593 25.869,71.076 C 1.711,5.987 13.893,6.974 25.143,4.347 16.801,5.147 8.147,3.799 0,0"
         style="fill:#58595b;fill-opacity:1;fill-rule:nonzero;stroke:none"
         transform="matrix(0.75649885,0,0,-0.75649885,-101.90876,3.4621571)"
         clip-path="url(#clipPath24-7)" />
      <path
         id="path25-3"
         d="m 0,0 c -22.693,0 -41.091,-18.397 -41.091,-41.084 0,-22.7 18.398,-41.09 41.091,-41.09 8.095,0 15.646,2.343 22.008,6.386 -7.858,-6.62 -18.006,-10.61 -29.085,-10.61 -24.956,0 -45.184,20.229 -45.184,45.188 0,24.95 20.228,45.184 45.184,45.184 10.519,0 20.195,-3.598 27.875,-9.624 C 14.696,-2.062 7.589,0 0,0"
         style="fill:#2884c5;fill-opacity:1;fill-rule:nonzero;stroke:none"
         transform="matrix(0.75649885,0,0,-0.75649885,-80.523979,5.4550005)"
         clip-path="url(#clipPath26-1)" />
      <path
         id="path27-7"
         d="m 0,0 c -16.901,7.884 -36.998,0.569 -44.883,-16.336 -7.883,-16.906 -0.569,-37 16.336,-44.883 6.032,-2.816 12.469,-3.691 18.615,-2.889 -8.155,-2.199 -17.096,-1.646 -25.353,2.198 -18.593,8.674 -26.635,30.769 -17.967,49.365 8.669,18.592 30.768,26.633 49.363,17.966 C 3.943,1.764 9.909,-4.277 13.535,-11.437 10.234,-6.645 5.655,-2.638 0,0"
         style="fill:#f8af3a;fill-opacity:1;fill-rule:nonzero;stroke:none"
         transform="matrix(0.75649885,0,0,-0.75649885,-64.822235,15.204681)"
         clip-path="url(#clipPath28-2)" />
    </g>
    <path
       id="path1-7"
       d="m 0,0 c 0.459,-0.48 0.97,-0.7 1.53,-0.66 0.6,0 1.119,0.21 1.56,0.63 C 3.529,0.39 3.75,0.899 3.75,1.5 3.83,2.1 3.63,2.589 3.15,2.97 2.67,3.35 2.149,3.54 1.59,3.54 1.029,3.579 0.51,3.409 0.03,3.03 -0.45,2.649 -0.65,2.16 -0.57,1.56 -0.65,0.999 -0.46,0.479 0,0 m -2.19,39.78 c 0.04,-0.081 0.08,-0.16 0.12,-0.24 2.4,0.039 4.82,0.039 7.259,0 l 0.301,0.42 c -0.081,0.08 -0.14,0.15 -0.18,0.21 -0.04,0.06 -0.1,0.129 -0.18,0.21 -1.16,0.039 -2.34,0.069 -3.54,0.09 -1.2,0.019 -2.38,-0.011 -3.54,-0.09 l -0.361,-0.36 c 0.04,-0.081 0.081,-0.161 0.121,-0.24 M 12.479,6.06 c 0.061,0.08 0.13,0.159 0.21,0.24 0.201,4.84 0.29,9.599 0.271,14.279 C 12.939,25.26 12.85,30.02 12.689,34.86 12.609,34.939 12.54,35 12.479,35.04 12.42,35.079 12.35,35.139 12.27,35.22 8.63,35.54 5.09,35.709 1.65,35.73 -1.791,35.75 -5.331,35.619 -8.97,35.34 -9.051,35.259 -9.15,35.19 -9.271,35.13 -9.39,35.07 -9.49,35 -9.57,34.92 -9.73,30.08 -9.82,25.329 -9.84,20.67 c -0.02,-4.661 0.069,-9.411 0.27,-14.25 0,-0.12 0.049,-0.231 0.15,-0.33 0.1,-0.101 0.19,-0.191 0.27,-0.271 3.639,-0.28 7.21,-0.429 10.71,-0.449 3.5,-0.02 7.07,0.129 10.71,0.449 0.08,0.08 0.15,0.16 0.209,0.241 M -9.69,-0.45 c -0.76,0.699 -1.3,1.55 -1.621,2.55 -0.32,6.159 -0.469,12.21 -0.449,18.15 0.02,5.94 0.19,11.989 0.51,18.15 0.199,1.16 0.76,2.16 1.68,3 0.92,0.84 1.96,1.359 3.12,1.56 2.679,0.24 5.359,0.36 8.04,0.36 1.359,0 2.709,-0.041 4.05,-0.12 1.339,-0.081 2.69,-0.201 4.049,-0.36 1.161,-0.201 2.191,-0.741 3.091,-1.62 0.9,-0.881 1.449,-1.901 1.65,-3.06 0.159,-3 0.279,-5.97 0.36,-8.91 0.079,-2.94 0.12,-5.91 0.12,-8.91 0,-3 -0.041,-5.961 -0.12,-8.88 C 14.709,8.539 14.589,5.58 14.43,2.58 14.229,1.38 13.67,0.35 12.75,-0.51 11.829,-1.371 10.79,-1.9 9.63,-2.101 6.87,-2.34 4.089,-2.451 1.29,-2.431 c -2.801,0.021 -5.58,0.19 -8.34,0.511 -1.001,0.279 -1.881,0.77 -2.64,1.47"
       style="fill:#ffffff;fill-opacity:1;fill-rule:nonzero;stroke:none"
       transform="matrix(0.70591964,0,0,-0.70591964,157.49532,122.87034)"
       clip-path="url(#clipPath2-2)"
       sodipodi:nodetypes="cccccccccccccscccccccccccccccscccsccccscscscccccsccccccc" />
    <path
       d="m 158.97584,108.69921 q 0.35699,0 0.56296,0.41121 0.20595,0.41118 0.20595,1.14223 0,0.18275 -0.0137,0.38836 -0.0137,0.18276 -0.0412,0.31981 -0.28835,-0.11418 -0.63162,-0.13705 -0.0824,1.00517 -0.43939,2.12456 -0.35699,1.09654 -0.86503,2.07886 -0.50804,0.95947 -1.11219,1.6905 -0.60415,0.73103 -1.19458,0.98233 -1.83992,-0.0686 -2.69123,-1.59913 -0.83756,-1.50776 -0.83756,-4.72885 0,-2.353 0.52177,-4.54609 0.52176,-2.21594 1.3868,-3.92929 0.86503,-1.71336 1.97722,-2.74136 1.12592,-1.050868 2.33423,-1.050868 0.94741,0 1.46918,0.662499 0.5355,0.662499 0.5355,1.873259 0,0.79957 -0.23341,1.48491 -0.21969,0.68534 -0.74147,1.48491 -0.31581,-0.15992 -0.54923,-0.54827 -0.23342,-0.4112 -0.28834,-0.93664 0.46684,-0.57112 0.65907,-1.05085 0.19224,-0.47973 0.19224,-1.14223 0,-1.05087 -0.7552,-1.05087 -0.61788,0 -1.33188,0.77673 -0.70026,0.75388 -1.41427,2.1931 -1.01607,2.03317 -1.48292,4.20342 -0.46684,2.14741 -0.46684,4.84306 0,1.00517 0.12358,1.82759 0.12357,0.82241 0.32953,1.4392 0.20597,0.6168 0.48058,0.98233 0.28835,0.36552 0.61788,0.41121 0.43939,-0.15991 0.87877,-0.73103 0.43938,-0.59396 0.79638,-1.37068 0.37074,-0.79957 0.61789,-1.69051 0.26089,-0.91378 0.31581,-1.7362 -0.38447,0.13705 -0.74147,0.27413 -0.34326,0.11419 -0.65908,0.11419 -0.41191,0 -0.72773,-0.34266 -0.30207,-0.34268 -0.41192,-0.93664 0.24716,-0.22845 0.71401,-0.47975 0.48057,-0.25128 1.01607,-0.45689 0.5355,-0.22845 1.04354,-0.36551 0.52176,-0.13706 0.8513,-0.13706 z m 1.73007,5.96246 q 0,-0.8224 0.15104,-2.12456 0.16476,-1.32499 0.41192,-2.83273 0.26087,-1.5306 0.59043,-3.10688 0.32953,-1.59914 0.67279,-2.99267 0.34327,-1.39351 0.67281,-2.44437 0.32953,-1.05086 0.59042,-1.507754 0.13731,0.02282 0.35701,0.182756 0.23341,0.137054 0.46684,0.342668 0.23342,0.2056 0.42564,0.45688 0.19224,0.22846 0.24716,0.43406 -0.39819,0.59396 -0.79638,1.80473 -0.38447,1.18794 -0.7552,2.71852 -0.357,1.5306 -0.67279,3.24394 -0.31582,1.69052 -0.54924,3.28965 -0.23342,1.59912 -0.37072,2.9698 -0.12358,1.37068 -0.12358,2.21594 0,0.38837 0.0412,0.47975 -0.30208,-0.0229 -0.43939,-0.18276 -0.1373,-0.13705 -0.21969,-0.31983 -0.0686,-0.15992 -0.13731,-0.34267 -0.0549,-0.15991 -0.1785,-0.25129 -0.0961,-0.0686 -0.16477,-0.31984 -0.0686,-0.25128 -0.12357,-0.54825 -0.0412,-0.31983 -0.0686,-0.63967 -0.0275,-0.31981 -0.0275,-0.52542 z"
       id="text4"
       style="font-size:18.2227px;font-family:'Kaushan Script';-inkscape-font-specification:'Kaushan Script, Normal';fill:#f8af3a;stroke-width:0.0428015"
       aria-label="GI" />
  </g>
</svg>
