<?xml version="1.0" encoding="UTF-8" standalone="no"?>
<svg
   fill="none"
   viewBox="0 0 283 64"
   version="1.1"
   id="svg1"
   sodipodi:docname="logo.svg"
   inkscape:export-filename="logo.svg"
   inkscape:export-xdpi="96"
   inkscape:export-ydpi="96"
   inkscape:version="1.3 (0e150ed6c4, 2023-07-21)"
   xmlns:inkscape="http://www.inkscape.org/namespaces/inkscape"
   xmlns:sodipodi="http://sodipodi.sourceforge.net/DTD/sodipodi-0.dtd"
   xmlns="http://www.w3.org/2000/svg"
   xmlns:svg="http://www.w3.org/2000/svg">
  <defs
     id="defs1">
    <clipPath
       id="v-4"
       clipPathUnits="userSpaceOnUse">
      <path
         d="m -45.474,8.75 h 348 v -112 h -348 z"
         id="path46-5" />
    </clipPath>
    <clipPath
       id="w-9"
       clipPathUnits="userSpaceOnUse">
      <path
         d="m -73.742,11.383 h 348 v -112 h -348 z"
         id="path47-9" />
    </clipPath>
    <clipPath
       id="x-7"
       clipPathUnits="userSpaceOnUse">
      <path
         d="m -94.498,24.271 h 348 v -112 h -348 z"
         id="path48-4" />
    </clipPath>
  </defs>
  <sodipodi:namedview
     id="namedview1"
     pagecolor="#505050"
     bordercolor="#eeeeee"
     borderopacity="1"
     inkscape:showpageshadow="0"
     inkscape:pageopacity="0"
     inkscape:pagecheckerboard="0"
     inkscape:deskcolor="#505050"
     inkscape:zoom="2.8983882"
     inkscape:cx="131.27986"
     inkscape:cy="50.717844"
     inkscape:window-width="1920"
     inkscape:window-height="1004"
     inkscape:window-x="0"
     inkscape:window-y="0"
     inkscape:window-maximized="1"
     inkscape:current-layer="g2" />
  <g
     id="g2"
     transform="matrix(0.87720452,0,0,0.87720452,36.081376,2.392289)">
    <path
       style="-inkscape-font-specification:'Alpaca Scarlett Demo, Normal';fill:#ffffff;stroke-width:2.3326;stroke-linecap:round;stroke-linejoin:round;stroke-opacity:0.6"
       d="m 232.1803,46.683342 -7.88851,-19.672186 -7.82305,19.672186 z m 2.97865,7.397528 h -21.66886 l -2.65133,6.644682 h -7.98671 L 224.29179,7.0771097 245.76426,60.725552 h -7.95398 z"
       id="path7" />
    <path
       style="-inkscape-font-specification:'Alpaca Scarlett Demo, Normal';fill:#ffffff;stroke-width:2.3326;stroke-linecap:round;stroke-linejoin:round;stroke-opacity:0.6"
       d="m 168.31935,54.833715 c -3.92789,-3.960623 -5.89183,-8.706824 -5.89183,-14.238604 V 7.1753069 h 7.33206 V 40.595111 c 0,3.535102 1.24383,6.546485 3.7315,9.034149 2.52039,2.487664 5.53178,3.764229 9.06688,3.764229 3.5351,0 6.57921,-1.276565 9.06688,-3.764229 2.48766,-2.487664 3.73149,-5.499047 3.73149,-9.034149 V 7.1753069 h 7.33207 V 40.595111 c 0,5.53178 -1.96395,10.277981 -5.89184,14.238604 -3.92789,3.927891 -8.67409,5.891837 -14.2386,5.891837 -5.56452,0 -10.31072,-1.963946 -14.23861,-5.891837 z"
       id="path6" />
    <path
       style="-inkscape-font-specification:'Alpaca Scarlett Demo, Normal';fill:#ffffff;stroke-width:2.3326;stroke-linecap:round;stroke-linejoin:round;stroke-opacity:0.6"
       d="m 131.33171,53.688081 c 4.05882,0 7.79032,-1.178368 11.12902,-3.469637 l -5.9573,-5.924569 5.17172,-5.171723 5.92457,5.957301 c 2.32401,-3.371439 3.46964,-7.070203 3.46964,-11.129024 0,-5.433582 -1.93121,-10.081586 -5.79364,-13.944012 -3.86242,-3.862426 -8.51043,-5.793639 -13.94401,-5.793639 -5.43358,0 -10.08159,1.931213 -13.94401,5.793639 -3.86243,3.862426 -5.79364,8.51043 -5.79364,13.944012 0,5.433583 1.93121,10.081587 5.79364,13.944013 3.86242,3.862426 8.51043,5.793639 13.94401,5.793639 z M 112.41237,52.86977 c -5.23719,-5.237188 -7.85578,-11.554545 -7.85578,-18.919341 0,-7.397527 2.61859,-13.682153 7.85578,-18.91934 5.23719,-5.2371882 11.55454,-7.8557821 18.91934,-7.8557821 7.39753,0 13.68215,2.6185939 18.91934,7.8557821 5.23719,5.237187 7.85578,11.521813 7.85578,18.91934 0,5.990034 -1.80028,11.390884 -5.43358,16.169817 l 10.57257,10.605306 h -10.31071 l -5.43358,-5.433583 c -4.77894,3.600567 -10.14705,5.433583 -16.16982,5.433583 -7.3648,0 -13.68215,-2.618594 -18.91934,-7.855782 z"
       id="path5" />
    <path
       style="-inkscape-font-specification:'Alpaca Scarlett Demo, Normal';fill:#ffffff;stroke-width:2.3326;stroke-linecap:round;stroke-linejoin:round;stroke-opacity:0.6"
       d="m 93.918552,46.683342 -7.888514,-19.672186 -7.82305,19.672186 z m 2.97865,7.397528 H 75.228338 l -2.651326,6.644682 H 64.5903 L 86.030038,7.0771097 107.50251,60.725552 h -7.953981 z"
       id="path4" />
    <path
       style="-inkscape-font-specification:'AVICENNA, Normal';fill:#ffffff;stroke-width:1.60651;stroke-linecap:round;stroke-linejoin:round;stroke-opacity:0.6"
       d="m 262.1703,17.561129 v 0 q -0.37965,-0.03796 -0.79726,-0.03796 v 0 q -0.37965,0 -0.79726,0.03796 z M 261.37304,6.7791412 v 0 0 q -5.20117,0 -9.49119,2.5816028 -4.29002,2.543638 -6.87162,6.833654 -2.54364,4.290017 -2.54364,9.491187 v 0 q 0,4.745593 2.16399,8.769856 2.164,4.024263 5.80861,6.643831 3.64462,2.619567 8.27632,3.302933 l -9.30137,16.135017 h 12.45244 l 14.92014,-23.879825 v 0 q 1.67045,-2.31585 2.58161,-5.087276 0.94912,-2.809392 0.94912,-5.884536 v 0 q 0,-5.20117 -2.58161,-9.491187 -2.54363,-4.290016 -6.87162,-6.833654 -4.29001,-2.5816028 -9.49118,-2.5816028 z m 0,10.7440228 v 0 0 q 3.37886,0 5.77064,2.391779 2.42974,2.391779 2.42974,5.770642 v 0 q 0,3.378862 -2.42974,5.808606 -2.39178,2.391779 -5.77064,2.391779 v 0 q -3.37886,0 -5.77064,-2.391779 -2.39178,-2.429744 -2.39178,-5.808606 v 0 q 0,-3.378863 2.39178,-5.770642 2.39178,-2.391779 5.77064,-2.391779 z"
       id="path3" />
  </g>
  <g
     id="g1"
     transform="matrix(1.0275502,0,0,1.0275502,-2.2448558,-0.36318512)">
    <path
       id="path39"
       d="M 57.370022,53.589042 C 80.562829,50.847702 79.299688,21.833348 63.907063,17.405031 48.515478,12.977762 39.870767,27.525853 46.406755,34.062895 43.877341,28.791087 52.311179,20.778986 59.901536,27.525853 68.815872,35.449829 58.42543,48.821856 46.617627,41.231507 36.397142,34.660891 19.630173,32.165044 9.5093491,47.978367 24.588292,33.31802 32.005545,41.559878 41.042627,48.121052 c -11.673513,-4.139817 -16.735495,3.204 -21.956947,7.388919 15.682182,-8.621633 20.167153,3.507192 32.794313,5.786926 9.427361,1.702715 19.114898,-5.436524 22.096483,-12.626114 -1.267335,2.058366 -8.68668,10.263502 -22.12481,4.730464 1.717406,0.328371 3.544969,0.420699 5.518356,0.187795"
       style="fill:#f8af3a;fill-opacity:1;fill-rule:nonzero;stroke:none;stroke-width:0.104911" />
    <path
       id="path40"
       d="M 34.955656,6.9012823 C 24.734117,15.194543 23.213948,22.676837 10.773534,24.363815 c 6.115297,2.529422 20.87426,2.740294 24.669961,0.210873 -0.210872,2.740293 3.162038,9.066463 9.066463,10.541522 C 39.449023,30.688938 40.81077,15.61419 55.507838,14.063597 73.306091,12.18463 76.347476,27.525853 76.76922,27.736726 77.401837,-2.8355633 46.130842,-2.1651782 34.955656,6.9012823"
       style="fill:#4b8ed3;fill-opacity:1;fill-rule:nonzero;stroke:none;stroke-width:0.104911" />
    <path
       id="path41"
       d="m 13.957601,13.706898 c 7.29975,1.427846 12.060634,-2.698327 14.704406,-4.8553094 0,0 -8.039373,3.1095794 -14.862823,-0.2234617 -4.7409545,-2.3143498 -8.2072334,3.4421501 0.158417,5.0787711"
       style="fill:#4b8ed3;fill-opacity:1;fill-rule:nonzero;stroke:none;stroke-width:0.104911" />
    <path
       id="path42"
       d="m 82.536214,22.947509 c -4.588831,3.651978 -4.545823,8.619539 -4.601421,11.309475 0,0 1.438338,-5.198372 7.230503,-6.71644 4.994841,-1.309297 2.629082,-8.779008 -2.629082,-4.593035"
       style="fill:#4b8ed3;fill-opacity:1;fill-rule:nonzero;stroke:none;stroke-width:0.104911" />
  </g>
</svg>
